<svg xmlns="http://www.w3.org/2000/svg" viewBox="0 0 64.44 60.31"><defs><style>.cls-1{fill:#c6c6c5;}.cls-2{fill:#ececec;}.cls-3{fill:#d9d9d9;}.cls-4{fill:#da1415;}</style></defs><title>carelic_icon_red</title><g id="Layer_2" data-name="Layer 2"><g id="Layer_6" data-name="Layer 6"><path class="cls-1" d="M42.91,20.22q6-2.47,12.45-4.84c2.93-1.06,5.81-2.07,8.64-3L59.36,50.85A20.9,20.9,0,0,0,46.5,48.59C36.23,50.18,31.38,59.26,30.85,60.31a22.35,22.35,0,0,1,3.07-15.05c5.57-8.8,15.41-10,16.68-10.1Z"/><path class="cls-2" d="M30.85,60.31c-1.37-6.37-4.13-9.78-5.75-11.41a59.54,59.54,0,0,0-6.86-5.45c-1.66-1.2-3.47-2.35-4-2.7l-.89-.54a17,17,0,0,1-2.14-1.47c-3.92-3.11-8.8-7-9.93-13.24A16.54,16.54,0,0,1,3.41,14.35a15.58,15.58,0,0,1,9.16-6.61,14.39,14.39,0,0,1,3.53-.45,13.11,13.11,0,0,1,4.61.83c.36.14.66.27.85.36l.18.08a29.33,29.33,0,0,1,5.34,3.25,19.93,19.93,0,0,1,2.6,2.58l.13,11.29q.17,11.66.59,23.65Q30.6,54.85,30.85,60.31Z"/><path class="cls-3" d="M28.66,13.26l9.1-8.63Q42.86,20.19,48,35.75a24.31,24.31,0,0,0-11.66,7.7,24.79,24.79,0,0,0-5.46,16.86q-.9-5.58-1.52-11.58A212,212,0,0,1,28.66,13.26Z"/><path class="cls-4" d="M52.59,38a21.51,21.51,0,0,0-4.94.67,21.17,21.17,0,0,0-2.8.9A23.6,23.6,0,0,0,42.08,41a22,22,0,0,0-7,6.27,21.17,21.17,0,0,0-1.27,2,20.37,20.37,0,0,0-1.1,2.19,22.14,22.14,0,0,0-1.87,8.94,22.15,22.15,0,0,1-.14-9.41l.12-.53a22.51,22.51,0,0,1,1.26-3.85,21.15,21.15,0,0,1,1-2,22.11,22.11,0,0,1,11.21-9.89l.79-.3L38,8.05l-8.1,4L38.49,0Z"/><path class="cls-4" d="M64.44,12,62.77,35.48,62.45,40l-.63,8.92-.39,5.56A22.37,22.37,0,0,0,57,52.2a21.93,21.93,0,0,0-2.82-.86,20.83,20.83,0,0,0-3-.49,22.06,22.06,0,0,0-11.51,2h0a22.29,22.29,0,0,0-8.8,7.44A22.16,22.16,0,0,1,41.67,48.64a22.12,22.12,0,0,1,14.86-1.7c.28.06.55.13.82.21L58,38.46l.33-4.73,1.1-15.48-11.11-.2Z"/><path class="cls-4" d="M27.81,12.45a14.59,14.59,0,0,0-6.75-5.27,14.7,14.7,0,0,0-8.72-.42,16.59,16.59,0,0,0-9.78,7A17.5,17.5,0,0,0,.25,25.68c1.19,6.63,6.31,10.69,10.3,13.85,2.23,1.76,1.81,1,7.11,4.74,7.2,5.06,8.84,7,9.92,8.79a18.93,18.93,0,0,1,2.59,7.25,22.14,22.14,0,0,0-2.38-8.67C26.62,49.39,25,47.31,18.64,42,10,34.7,8.53,34.86,6.56,31.46,5.73,30,2.77,24.92,4.66,19.27c2-5.88,7.81-8.1,9.36-8.62C21,8.33,26.94,11.9,27.81,12.45Z"/></g></g></svg>